<mxfile host="app.diagrams.net" modified="2024-05-19T13:29:08.184Z" agent="Mozilla/5.0 (Macintosh; Intel Mac OS X 10_15_7) AppleWebKit/605.1.15 (KHTML, like Gecko) Version/17.2.1 Safari/605.1.15" etag="GW5yffgT8CLQxWVXZoAf" version="24.3.1" type="github">
  <diagram name="Page-1" id="zxkQnWkxhJP1V7UFIvOv">
    <mxGraphModel dx="1137" dy="764" grid="1" gridSize="10" guides="1" tooltips="1" connect="1" arrows="1" fold="1" page="1" pageScale="1" pageWidth="827" pageHeight="1169" math="0" shadow="0">
      <root>
        <mxCell id="0" />
        <mxCell id="1" parent="0" />
        <mxCell id="BvDiLbhkmywkY8nyMA_M-14" value="" style="edgeStyle=orthogonalEdgeStyle;rounded=0;orthogonalLoop=1;jettySize=auto;html=1;" parent="1" source="BvDiLbhkmywkY8nyMA_M-1" target="BvDiLbhkmywkY8nyMA_M-2" edge="1">
          <mxGeometry relative="1" as="geometry" />
        </mxCell>
        <mxCell id="BvDiLbhkmywkY8nyMA_M-1" value="Eurpoa Ice Models&lt;div&gt;&lt;br&gt;&lt;/div&gt;" style="shape=cylinder3;whiteSpace=wrap;html=1;boundedLbl=1;backgroundOutline=1;size=15;" parent="1" vertex="1">
          <mxGeometry x="195" width="110" height="70" as="geometry" />
        </mxCell>
        <mxCell id="BvDiLbhkmywkY8nyMA_M-15" style="edgeStyle=orthogonalEdgeStyle;rounded=0;orthogonalLoop=1;jettySize=auto;html=1;" parent="1" source="BvDiLbhkmywkY8nyMA_M-2" target="BvDiLbhkmywkY8nyMA_M-5" edge="1">
          <mxGeometry relative="1" as="geometry" />
        </mxCell>
        <mxCell id="BvDiLbhkmywkY8nyMA_M-26" style="edgeStyle=orthogonalEdgeStyle;rounded=0;orthogonalLoop=1;jettySize=auto;html=1;exitX=0.5;exitY=1;exitDx=0;exitDy=0;entryX=0.5;entryY=0;entryDx=0;entryDy=0;" parent="1" source="BvDiLbhkmywkY8nyMA_M-2" target="BvDiLbhkmywkY8nyMA_M-9" edge="1">
          <mxGeometry relative="1" as="geometry" />
        </mxCell>
        <mxCell id="BvDiLbhkmywkY8nyMA_M-2" value="1D Slicing and Interpolation" style="shape=process;whiteSpace=wrap;html=1;backgroundOutline=1;" parent="1" vertex="1">
          <mxGeometry x="190" y="105" width="120" height="60" as="geometry" />
        </mxCell>
        <mxCell id="BvDiLbhkmywkY8nyMA_M-21" style="edgeStyle=orthogonalEdgeStyle;rounded=0;orthogonalLoop=1;jettySize=auto;html=1;exitX=0;exitY=0.5;exitDx=0;exitDy=0;exitPerimeter=0;entryX=1;entryY=0.5;entryDx=0;entryDy=0;" parent="1" source="BvDiLbhkmywkY8nyMA_M-3" target="BvDiLbhkmywkY8nyMA_M-9" edge="1">
          <mxGeometry relative="1" as="geometry" />
        </mxCell>
        <mxCell id="BvDiLbhkmywkY8nyMA_M-25" style="edgeStyle=orthogonalEdgeStyle;rounded=0;orthogonalLoop=1;jettySize=auto;html=1;exitX=1;exitY=0.5;exitDx=0;exitDy=0;exitPerimeter=0;" parent="1" source="BvDiLbhkmywkY8nyMA_M-3" edge="1">
          <mxGeometry relative="1" as="geometry">
            <mxPoint x="540" y="224.57142857142867" as="targetPoint" />
          </mxGeometry>
        </mxCell>
        <mxCell id="BvDiLbhkmywkY8nyMA_M-3" value="&lt;div&gt;Scientific Probe Parameters&lt;/div&gt;" style="shape=cylinder3;whiteSpace=wrap;html=1;boundedLbl=1;backgroundOutline=1;size=15;" parent="1" vertex="1">
          <mxGeometry x="390" y="190" width="110" height="70" as="geometry" />
        </mxCell>
        <mxCell id="BvDiLbhkmywkY8nyMA_M-23" style="edgeStyle=orthogonalEdgeStyle;rounded=0;orthogonalLoop=1;jettySize=auto;html=1;exitX=0;exitY=0.5;exitDx=0;exitDy=0;exitPerimeter=0;" parent="1" source="BvDiLbhkmywkY8nyMA_M-4" edge="1">
          <mxGeometry relative="1" as="geometry">
            <mxPoint x="350" y="250" as="targetPoint" />
          </mxGeometry>
        </mxCell>
        <mxCell id="BvDiLbhkmywkY8nyMA_M-24" style="edgeStyle=orthogonalEdgeStyle;rounded=0;orthogonalLoop=1;jettySize=auto;html=1;entryX=0.5;entryY=1;entryDx=0;entryDy=0;" parent="1" source="BvDiLbhkmywkY8nyMA_M-4" target="BvDiLbhkmywkY8nyMA_M-5" edge="1">
          <mxGeometry relative="1" as="geometry">
            <mxPoint x="540" y="180" as="targetPoint" />
            <Array as="points">
              <mxPoint x="540" y="315" />
            </Array>
          </mxGeometry>
        </mxCell>
        <mxCell id="BvDiLbhkmywkY8nyMA_M-4" value="&lt;div&gt;Relay Probe Parameters&lt;/div&gt;" style="shape=cylinder3;whiteSpace=wrap;html=1;boundedLbl=1;backgroundOutline=1;size=15;" parent="1" vertex="1">
          <mxGeometry x="390" y="280" width="110" height="70" as="geometry" />
        </mxCell>
        <mxCell id="BvDiLbhkmywkY8nyMA_M-18" style="edgeStyle=orthogonalEdgeStyle;rounded=0;orthogonalLoop=1;jettySize=auto;html=1;entryX=0.5;entryY=0;entryDx=0;entryDy=0;entryPerimeter=0;" parent="1" source="BvDiLbhkmywkY8nyMA_M-5" target="BvDiLbhkmywkY8nyMA_M-6" edge="1">
          <mxGeometry relative="1" as="geometry">
            <mxPoint x="630" y="180" as="targetPoint" />
            <Array as="points">
              <mxPoint x="620" y="135" />
            </Array>
          </mxGeometry>
        </mxCell>
        <mxCell id="BvDiLbhkmywkY8nyMA_M-5" value="SNR calculated and compared to target SNR" style="shape=process;whiteSpace=wrap;html=1;backgroundOutline=1;" parent="1" vertex="1">
          <mxGeometry x="480" y="105" width="120" height="60" as="geometry" />
        </mxCell>
        <mxCell id="BvDiLbhkmywkY8nyMA_M-6" value="Max Comm lengths above Science Probe" style="shape=cylinder3;whiteSpace=wrap;html=1;boundedLbl=1;backgroundOutline=1;size=15;" parent="1" vertex="1">
          <mxGeometry x="560" y="190" width="120" height="70" as="geometry" />
        </mxCell>
        <mxCell id="BvDiLbhkmywkY8nyMA_M-20" style="edgeStyle=orthogonalEdgeStyle;rounded=0;orthogonalLoop=1;jettySize=auto;html=1;entryX=0.5;entryY=0;entryDx=0;entryDy=0;" parent="1" source="BvDiLbhkmywkY8nyMA_M-7" target="BvDiLbhkmywkY8nyMA_M-10" edge="1">
          <mxGeometry relative="1" as="geometry">
            <Array as="points">
              <mxPoint x="618" y="430" />
            </Array>
          </mxGeometry>
        </mxCell>
        <mxCell id="BvDiLbhkmywkY8nyMA_M-7" value="Max Comm lengths above Relay Probe" style="shape=cylinder3;whiteSpace=wrap;html=1;boundedLbl=1;backgroundOutline=1;size=15;" parent="1" vertex="1">
          <mxGeometry x="560" y="280" width="115" height="70" as="geometry" />
        </mxCell>
        <mxCell id="BvDiLbhkmywkY8nyMA_M-28" style="edgeStyle=orthogonalEdgeStyle;rounded=0;orthogonalLoop=1;jettySize=auto;html=1;exitX=0.5;exitY=1;exitDx=0;exitDy=0;entryX=0.5;entryY=0;entryDx=0;entryDy=0;" parent="1" source="BvDiLbhkmywkY8nyMA_M-8" target="BvDiLbhkmywkY8nyMA_M-10" edge="1">
          <mxGeometry relative="1" as="geometry" />
        </mxCell>
        <mxCell id="BvDiLbhkmywkY8nyMA_M-8" value="Separation of probes calculated" style="shape=process;whiteSpace=wrap;html=1;backgroundOutline=1;" parent="1" vertex="1">
          <mxGeometry x="190" y="330" width="120" height="70" as="geometry" />
        </mxCell>
        <mxCell id="BvDiLbhkmywkY8nyMA_M-27" style="edgeStyle=orthogonalEdgeStyle;rounded=0;orthogonalLoop=1;jettySize=auto;html=1;exitX=0.5;exitY=1;exitDx=0;exitDy=0;entryX=0.5;entryY=0;entryDx=0;entryDy=0;" parent="1" source="BvDiLbhkmywkY8nyMA_M-9" target="BvDiLbhkmywkY8nyMA_M-8" edge="1">
          <mxGeometry relative="1" as="geometry" />
        </mxCell>
        <mxCell id="BvDiLbhkmywkY8nyMA_M-9" value="Velocity Profile calculated for all probes" style="shape=process;whiteSpace=wrap;html=1;backgroundOutline=1;" parent="1" vertex="1">
          <mxGeometry x="190" y="220" width="120" height="60" as="geometry" />
        </mxCell>
        <mxCell id="BvDiLbhkmywkY8nyMA_M-29" value="No" style="edgeStyle=orthogonalEdgeStyle;rounded=0;orthogonalLoop=1;jettySize=auto;html=1;exitX=0.5;exitY=1;exitDx=0;exitDy=0;entryX=0.5;entryY=0;entryDx=0;entryDy=0;" parent="1" source="BvDiLbhkmywkY8nyMA_M-10" target="BvDiLbhkmywkY8nyMA_M-11" edge="1">
          <mxGeometry relative="1" as="geometry" />
        </mxCell>
        <mxCell id="BvDiLbhkmywkY8nyMA_M-10" value="&lt;font style=&quot;font-size: 12px;&quot;&gt;Is separation of probes too great for positive comms?&lt;/font&gt;" style="rhombus;whiteSpace=wrap;html=1;" parent="1" vertex="1">
          <mxGeometry x="165" y="430" width="170" height="130" as="geometry" />
        </mxCell>
        <mxCell id="BvDiLbhkmywkY8nyMA_M-11" value="Has time step exceeded mission operation limit?" style="rhombus;whiteSpace=wrap;html=1;" parent="1" vertex="1">
          <mxGeometry x="165" y="580" width="170" height="130" as="geometry" />
        </mxCell>
        <mxCell id="BvDiLbhkmywkY8nyMA_M-13" value="Mean depth and uncertainty for Europa and Probe profiles" style="shape=cylinder3;whiteSpace=wrap;html=1;boundedLbl=1;backgroundOutline=1;size=15;" parent="1" vertex="1">
          <mxGeometry x="165" y="760" width="170" height="100" as="geometry" />
        </mxCell>
        <mxCell id="BvDiLbhkmywkY8nyMA_M-19" style="edgeStyle=orthogonalEdgeStyle;rounded=0;orthogonalLoop=1;jettySize=auto;html=1;exitX=0.5;exitY=1;exitDx=0;exitDy=0;exitPerimeter=0;entryX=0.5;entryY=0;entryDx=0;entryDy=0;entryPerimeter=0;" parent="1" source="BvDiLbhkmywkY8nyMA_M-6" target="BvDiLbhkmywkY8nyMA_M-7" edge="1">
          <mxGeometry relative="1" as="geometry" />
        </mxCell>
        <mxCell id="BvDiLbhkmywkY8nyMA_M-30" value="Yes" style="edgeStyle=orthogonalEdgeStyle;rounded=0;orthogonalLoop=1;jettySize=auto;html=1;exitX=0.5;exitY=1;exitDx=0;exitDy=0;entryX=0.5;entryY=0;entryDx=0;entryDy=0;entryPerimeter=0;" parent="1" source="BvDiLbhkmywkY8nyMA_M-11" target="BvDiLbhkmywkY8nyMA_M-13" edge="1">
          <mxGeometry relative="1" as="geometry" />
        </mxCell>
        <mxCell id="BvDiLbhkmywkY8nyMA_M-36" value="" style="endArrow=none;html=1;rounded=0;entryX=0;entryY=0.5;entryDx=0;entryDy=0;" parent="1" target="BvDiLbhkmywkY8nyMA_M-11" edge="1">
          <mxGeometry width="50" height="50" relative="1" as="geometry">
            <mxPoint x="80" y="300" as="sourcePoint" />
            <mxPoint x="520" y="530" as="targetPoint" />
            <Array as="points">
              <mxPoint x="80" y="645" />
            </Array>
          </mxGeometry>
        </mxCell>
        <mxCell id="BvDiLbhkmywkY8nyMA_M-39" value="t = t+1" style="edgeLabel;html=1;align=center;verticalAlign=middle;resizable=0;points=[];fontSize=17;" parent="BvDiLbhkmywkY8nyMA_M-36" vertex="1" connectable="0">
          <mxGeometry x="-0.2611" y="-2" relative="1" as="geometry">
            <mxPoint as="offset" />
          </mxGeometry>
        </mxCell>
        <mxCell id="BvDiLbhkmywkY8nyMA_M-40" value="No" style="edgeLabel;html=1;align=center;verticalAlign=middle;resizable=0;points=[];" parent="BvDiLbhkmywkY8nyMA_M-36" vertex="1" connectable="0">
          <mxGeometry x="0.8286" y="3" relative="1" as="geometry">
            <mxPoint as="offset" />
          </mxGeometry>
        </mxCell>
        <mxCell id="BvDiLbhkmywkY8nyMA_M-38" value="" style="endArrow=classic;html=1;rounded=0;" parent="1" edge="1">
          <mxGeometry width="50" height="50" relative="1" as="geometry">
            <mxPoint x="80" y="300" as="sourcePoint" />
            <mxPoint x="250" y="300" as="targetPoint" />
          </mxGeometry>
        </mxCell>
        <mxCell id="BvDiLbhkmywkY8nyMA_M-43" value="" style="endArrow=none;html=1;rounded=0;exitX=1;exitY=0.5;exitDx=0;exitDy=0;" parent="1" source="BvDiLbhkmywkY8nyMA_M-10" edge="1">
          <mxGeometry width="50" height="50" relative="1" as="geometry">
            <mxPoint x="470" y="580" as="sourcePoint" />
            <mxPoint x="520" y="820" as="targetPoint" />
            <Array as="points">
              <mxPoint x="520" y="495" />
            </Array>
          </mxGeometry>
        </mxCell>
        <mxCell id="BvDiLbhkmywkY8nyMA_M-46" value="Yes" style="edgeLabel;html=1;align=center;verticalAlign=middle;resizable=0;points=[];" parent="BvDiLbhkmywkY8nyMA_M-43" vertex="1" connectable="0">
          <mxGeometry x="-0.6347" y="5" relative="1" as="geometry">
            <mxPoint as="offset" />
          </mxGeometry>
        </mxCell>
        <mxCell id="BvDiLbhkmywkY8nyMA_M-44" value="" style="endArrow=classic;html=1;rounded=0;" parent="1" edge="1">
          <mxGeometry width="50" height="50" relative="1" as="geometry">
            <mxPoint x="520" y="820" as="sourcePoint" />
            <mxPoint x="340" y="820" as="targetPoint" />
          </mxGeometry>
        </mxCell>
      </root>
    </mxGraphModel>
  </diagram>
</mxfile>
